<svg width="438" height="513" viewBox="0 0 438 513" fill="none" xmlns="http://www.w3.org/2000/svg">
<path d="M314.644 0C287.348 1.888 255.444 19.36 236.852 42.112C219.892 62.752 205.94 93.408 211.38 123.2C241.204 124.128 272.02 106.24 289.876 83.104C306.58 61.568 319.22 31.104 314.644 0Z" fill="black"/>
<path d="M422.516 171.776C396.308 138.912 359.476 119.84 324.692 119.84C278.772 119.84 259.348 141.824 227.444 141.824C194.548 141.824 169.556 119.904 129.844 119.904C90.836 119.904 49.3 143.744 22.964 184.512C-14.06 241.92 -7.724 349.856 52.276 441.792C73.748 474.688 102.42 511.68 139.924 512C173.3 512.32 182.708 490.592 227.924 490.368C273.14 490.112 281.716 512.288 315.028 511.936C352.564 511.648 382.804 470.656 404.276 437.76C419.668 414.176 425.396 402.304 437.332 375.68C350.516 342.624 336.596 219.168 422.516 171.776Z" fill="black"/>
</svg>
