<svg width="512" height="512" viewBox="0 0 512 512" fill="none" xmlns="http://www.w3.org/2000/svg">
<path d="M256 0C147.855 0 0 81.7386 0 256C0 425.827 142.211 512 256 512C451.225 512 512 340.964 512 256C512 130.62 416.05 0 256 0ZM196.636 24.0882C169.928 46.8661 147.754 84.5606 133.443 131.326C114.898 120.34 97.8646 106.734 82.7465 90.9102C113.991 58.1543 153.499 35.1748 196.636 24.0882ZM71.7606 103.206C88.6929 120.844 107.943 135.861 128.907 147.754C121.046 178.293 116.409 212.157 115.805 247.735H16.7307C18.5449 194.62 37.8961 143.924 71.7606 103.206ZM71.7606 408.794C37.7953 368.076 18.5449 317.38 16.7307 264.265H115.805C116.409 299.943 121.046 333.707 128.907 364.246C108.044 376.239 88.7937 391.156 71.7606 408.794ZM82.7465 421.191C97.8646 405.367 114.898 391.761 133.443 380.775C147.754 427.439 169.928 465.235 196.636 488.013C153.499 476.825 113.991 453.846 82.7465 421.191ZM247.735 494.866C204.8 489.424 167.811 441.449 147.855 372.712C178.696 357.09 212.762 348.321 247.735 347.011V494.866ZM247.735 330.583C211.25 331.792 175.773 340.762 143.622 356.485C136.869 328.265 132.838 297.121 132.233 264.265H247.735V330.583V330.583ZM247.735 247.735H132.233C132.838 214.879 136.869 183.735 143.622 155.515C175.874 171.238 211.351 180.208 247.735 181.417V247.735ZM247.735 164.989C212.661 163.78 178.696 154.91 147.855 139.288C167.811 70.4504 204.8 22.5764 247.735 17.1339V164.989ZM440.239 103.206C474.104 143.924 493.455 194.62 495.269 247.735H396.296C395.691 212.057 391.055 178.293 383.194 147.754C404.057 135.761 423.307 120.844 440.239 103.206ZM429.254 90.8094C414.135 106.633 397.102 120.239 378.557 131.225C364.246 84.5606 342.072 46.8661 315.364 23.9874C358.501 35.1748 398.009 58.1543 429.254 90.8094ZM264.265 17.1339C307.2 22.5764 344.189 70.5512 364.145 139.288C333.304 154.91 299.339 163.679 264.265 164.989V17.1339V17.1339ZM264.265 181.417C300.75 180.208 336.227 171.238 368.378 155.515C375.131 183.735 379.162 214.879 379.767 247.735H264.265V181.417ZM264.265 264.265H379.767C379.162 297.121 375.131 328.265 368.378 356.485C336.227 340.661 300.75 331.691 264.265 330.583V264.265V264.265ZM264.265 494.866V347.011C299.339 348.22 333.304 357.09 364.145 372.712C344.189 441.55 307.2 489.424 264.265 494.866ZM315.364 487.912C342.072 465.134 364.246 427.439 378.557 380.674C397.102 391.66 414.135 405.266 429.254 421.09C398.009 453.846 358.501 476.825 315.364 487.912ZM440.239 408.794C423.307 391.156 404.057 376.239 383.194 364.246C391.055 333.707 395.691 299.843 396.296 264.265H495.269C493.455 317.38 474.104 368.076 440.239 408.794Z" fill="#666666"/>
</svg>
