<svg width="460" height="512" viewBox="0 0 460 512" fill="none" xmlns="http://www.w3.org/2000/svg">
<path d="M9.26018 8.0207C2.76125 15.818 -0.52527 25.797 0.0684326 35.9302V476.131C-0.491675 486.26 2.7909 496.227 9.26018 504.041L10.7643 505.545L257.27 258.872V253.022L10.7643 6.5166L9.26018 8.0207Z" fill="url(#paint0_linear)"/>
<path d="M339.494 341.096L257.27 258.872V253.023L339.494 170.965L341.333 171.968L438.765 227.286C466.675 242.995 466.675 268.899 438.765 284.776L341.333 340.093L339.494 341.096Z" fill="url(#paint1_linear)"/>
<path d="M341.333 340.093L257.771 256.532L9.26016 504.04C14.9883 508.75 22.12 511.42 29.5325 511.632C36.945 511.844 44.2175 509.585 50.2052 505.21L340.831 340.093" fill="url(#paint2_linear)"/>
<path d="M341.333 171.968L50.2052 6.68375C44.2817 2.12968 36.9609 -0.226653 29.4932 0.0171926C22.0254 0.261038 14.8739 3.08994 9.26016 8.02073L257.27 256.031L341.333 171.968Z" fill="url(#paint3_linear)"/>
<path opacity="0.1" d="M339.494 338.255L50.2052 502.369C44.4347 506.669 37.4305 508.992 30.2341 508.992C23.0377 508.992 16.0335 506.669 10.2629 502.369L8.75882 503.873L10.2629 505.377C16.0335 509.677 23.0377 512 30.2341 512C37.4305 512 44.4347 509.677 50.2052 505.377L340.831 340.26L339.494 338.255Z" fill="black"/>
<path opacity="0.07" d="M9.26011 501.367C2.78001 493.494 -0.501216 483.471 0.0683656 473.29V476.131C-0.491742 486.26 2.79083 496.227 9.26011 504.041L10.7642 502.536L9.26011 501.367Z" fill="black"/>
<path opacity="0.07" d="M438.765 281.768L339.494 338.255L341.333 340.093L438.765 284.107C444.48 281.594 449.425 277.609 453.096 272.559C456.766 267.508 459.03 261.574 459.655 255.362C458.515 261.104 456.026 266.493 452.394 271.084C448.762 275.675 444.091 279.337 438.765 281.768Z" fill="black"/>
<path opacity="0.3" d="M50.2052 9.69193L438.765 230.127C444.039 232.498 448.679 236.079 452.309 240.58C455.939 245.081 458.456 250.374 459.656 256.031C459.064 249.808 456.813 243.859 453.139 238.803C449.465 233.747 444.501 229.77 438.765 227.286L50.2052 6.68373C22.7971 -9.02579 0.0684509 4.00977 0.0684509 35.9302V38.7713C0.0684509 7.01797 22.7971 -6.18471 50.2052 9.69193Z" fill="white"/>
<defs>
<linearGradient id="paint0_linear" x1="235.544" y1="31.2508" x2="-98.5339" y2="365.329" gradientUnits="userSpaceOnUse">
<stop stop-color="#008EFF"/>
<stop offset="0.01" stop-color="#008FFF"/>
<stop offset="0.26" stop-color="#00ACFF"/>
<stop offset="0.51" stop-color="#00C0FF"/>
<stop offset="0.76" stop-color="#00CDFF"/>
<stop offset="1" stop-color="#00D1FF"/>
</linearGradient>
<linearGradient id="paint1_linear" x1="442.108" y1="256.031" x2="-39.5396" y2="256.031" gradientUnits="userSpaceOnUse">
<stop stop-color="#FFD800"/>
<stop offset="1" stop-color="#FF8A00"/>
</linearGradient>
<linearGradient id="paint2_linear" x1="295.708" y1="301.655" x2="-157.194" y2="754.557" gradientUnits="userSpaceOnUse">
<stop stop-color="#FF3A44"/>
<stop offset="1" stop-color="#B11162"/>
</linearGradient>
<linearGradient id="paint3_linear" x1="-53.2437" y1="-138.546" x2="149.142" y2="63.6726" gradientUnits="userSpaceOnUse">
<stop stop-color="#328E71"/>
<stop offset="0.07" stop-color="#2D9571"/>
<stop offset="0.48" stop-color="#15BD74"/>
<stop offset="0.8" stop-color="#06D575"/>
<stop offset="1" stop-color="#00DE76"/>
</linearGradient>
</defs>
</svg>
